<svg viewBox="0 0 860 440" xmlns="http://www.w3.org/2000/svg" font-family="system-ui, -apple-system, Segoe UI, sans-serif"><rect x="0" y="0" width="860" height="440" fill="#fcfcfb" rx="10"/><text x="64" y="28" font-size="18" font-weight="600" fill="#0b0b0b">Actitud del cohete durante el vuelo</text><text x="64" y="46" font-size="12.5" fill="#52514e">Ángulos de roll y pitch estimados por el filtro complementario (MPU6050) — vuelo simulado</text><line x1="64" y1="384" x2="832" y2="384" stroke="#e1e0d9" stroke-width="1"/><text x="54" y="388" font-size="11.5" fill="#898781" text-anchor="end">-16</text><line x1="64" y1="302" x2="832" y2="302" stroke="#e1e0d9" stroke-width="1"/><text x="54" y="306" font-size="11.5" fill="#898781" text-anchor="end">-8</text><line x1="64" y1="220" x2="832" y2="220" stroke="#e1e0d9" stroke-width="1"/><text x="54" y="224" font-size="11.5" fill="#898781" text-anchor="end">0</text><line x1="64" y1="138" x2="832" y2="138" stroke="#e1e0d9" stroke-width="1"/><text x="54" y="142" font-size="11.5" fill="#898781" text-anchor="end">8</text><line x1="64" y1="56" x2="832" y2="56" stroke="#e1e0d9" stroke-width="1"/><text x="54" y="60" font-size="11.5" fill="#898781" text-anchor="end">16</text><text x="64" y="404" font-size="11.5" fill="#898781" text-anchor="middle">0.0</text><text x="192" y="404" font-size="11.5" fill="#898781" text-anchor="middle">2.0</text><text x="320" y="404" font-size="11.5" fill="#898781" text-anchor="middle">4.0</text><text x="448" y="404" font-size="11.5" fill="#898781" text-anchor="middle">6.0</text><text x="576" y="404" font-size="11.5" fill="#898781" text-anchor="middle">8.0</text><text x="704" y="404" font-size="11.5" fill="#898781" text-anchor="middle">10.0</text><text x="832" y="404" font-size="11.5" fill="#898781" text-anchor="middle">12.0</text><line x1="64" y1="384" x2="832" y2="384" stroke="#c3c2b7" stroke-width="1"/><line x1="64" y1="56" x2="64" y2="384" stroke="#c3c2b7" stroke-width="1"/><text x="448" y="430" font-size="12.5" fill="#52514e" text-anchor="middle">Tiempo (s)</text><text x="16" y="220" font-size="12.5" fill="#52514e" text-anchor="middle" transform="rotate(-90 16 220)">Ángulo (°)</text><polyline points="64.0,221.7 66.6,217.6 69.1,238.8 71.7,205.7 74.2,210.8 76.8,248.9 79.4,185.0 81.9,227.7 84.5,261.5 87.0,243.3 89.6,250.8 92.2,266.2 94.7,269.5 97.3,265.8 99.8,258.1 102.4,243.8 105.0,229.7 107.5,221.6 110.1,210.9 112.6,203.0 115.2,199.5 117.8,195.9 120.3,193.7 122.9,209.6 125.4,214.3 128.0,226.7 130.6,226.9 133.1,231.6 135.7,239.8 138.2,236.6 140.8,229.9 143.4,233.2 145.9,224.8 148.5,218.7 151.0,218.0 153.6,218.8 156.2,215.3 158.7,208.9 161.3,219.3 163.8,215.1 166.4,216.9 169.0,216.5 171.5,215.0 174.1,220.8 176.6,222.0 179.2,228.3 181.8,225.4 184.3,217.7 186.9,221.1 189.4,220.0 192.0,216.8 194.6,219.4 197.1,214.1 199.7,214.4 202.2,220.6 204.8,220.5 207.4,216.0 209.9,218.9 212.5,216.6 215.0,213.4 217.6,220.1 220.2,219.6 222.7,221.0 225.3,221.3 227.8,220.1 230.4,221.4 233.0,219.5 235.5,217.8 238.1,224.5 240.6,208.7 243.2,218.0 245.8,217.8 248.3,220.8 250.9,224.3 253.4,224.5 256.0,228.1 258.6,222.0 261.1,225.7 263.7,227.4 266.2,221.2 268.8,217.8 271.4,222.9 273.9,214.2 276.5,215.2 279.0,219.9 281.6,216.7 284.2,218.6 286.7,218.4 289.3,224.2 291.8,205.5 294.4,215.4 297.0,216.8 299.5,215.4 302.1,211.4 304.6,213.5 307.2,223.2 309.8,214.0 312.3,220.3 314.9,220.3 317.4,216.1 320.0,211.2 322.6,221.1 325.1,220.0 327.7,226.5 330.2,217.9 332.8,219.0 335.4,220.5 337.9,228.8 340.5,218.4 343.0,219.2 345.6,218.8 348.2,224.2 350.7,225.4 353.3,224.1 355.8,226.3 358.4,222.0 361.0,216.9 363.5,218.1 366.1,215.4 368.6,216.6 371.2,219.9 373.8,226.0 376.3,222.9 378.9,214.0 381.4,213.0 384.0,227.1 386.6,226.6 389.1,215.0 391.7,218.3 394.2,228.2 396.8,221.3 399.4,225.4 401.9,216.0 404.5,220.3 407.0,217.6 409.6,210.5 412.2,223.6 414.7,225.3 417.3,224.7 419.8,222.8 422.4,217.9 425.0,216.8 427.5,219.2 430.1,222.0 432.6,225.0 435.2,227.1 437.8,223.9 440.3,224.7 442.9,224.5 445.4,216.4 448.0,223.6 450.6,217.6 453.1,223.9 455.7,225.6 458.2,223.9 460.8,221.0 463.4,216.3 465.9,223.0 468.5,215.0 471.0,224.4 473.6,220.8 476.2,221.8 478.7,219.0 481.3,229.3 483.8,215.5 486.4,220.1 489.0,214.2 491.5,219.0 494.1,223.3 496.6,213.2 499.2,223.3 501.8,222.2 504.3,220.5 506.9,221.1 509.4,221.6 512.0,225.1 514.6,218.9 517.1,211.9 519.7,220.9 522.2,218.1 524.8,219.1 527.4,221.6 529.9,221.4 532.5,222.5 535.0,219.7 537.6,225.6 540.2,191.5 542.7,180.0 545.3,175.5 547.8,158.9 550.4,149.9 553.0,152.8 555.5,136.3 558.1,132.8 560.6,129.2 563.2,122.5 565.8,119.4 568.3,115.4 570.9,116.2 573.4,117.8 576.0,124.6 578.6,122.3 581.1,128.9 583.7,124.2 586.2,135.5 588.8,143.8 591.4,149.7 593.9,145.2 596.5,158.2 599.0,169.0 601.6,172.8 604.2,187.0 606.7,189.4 609.3,209.2 611.8,219.3 614.4,230.7 617.0,238.5 619.5,248.9 622.1,256.4 624.6,262.0 627.2,270.3 629.8,280.5 632.3,288.5 634.9,297.4 637.4,304.1 640.0,307.6 642.6,311.2 645.1,316.6 647.7,311.2 650.2,318.5 652.8,322.0 655.4,327.3 657.9,315.5 660.5,324.9 663.0,318.2 665.6,312.0 668.2,304.4 670.7,294.3 673.3,292.1 675.8,277.7 678.4,272.7 681.0,260.3 683.5,261.2 686.1,250.5 688.6,234.0 691.2,230.5 693.8,219.3 696.3,199.6 698.9,196.4 701.4,185.7 704.0,181.5 706.6,171.4 709.1,156.4 711.7,148.0 714.2,139.4 716.8,138.4 719.4,130.9 721.9,125.9 724.5,127.7 727.0,121.1 729.6,114.6 732.2,116.2 734.7,120.2 737.3,118.4 739.8,118.0 742.4,123.9 745.0,130.3 747.5,145.6 750.1,144.5 752.6,153.8 755.2,157.9 757.8,161.4 760.3,171.7 762.9,189.7 765.4,196.2 768.0,203.5 770.6,207.8 773.1,227.0 775.7,227.0 778.2,243.7 780.8,245.5 783.4,265.6 785.9,268.9 788.5,285.6 791.0,284.7 793.6,298.4 796.2,306.3 798.7,305.5 801.3,311.1 803.8,314.8 806.4,323.9 809.0,314.1 811.5,321.6 814.1,320.9 816.6,324.0 819.2,324.6 821.8,310.4 824.3,307.5 826.9,305.5 829.4,302.0 832.0,293.1" fill="none" stroke="#2a78d6" stroke-width="2" stroke-linejoin="round" stroke-linecap="round"/><polyline points="64.0,220.5 66.6,216.3 69.1,225.1 71.7,219.2 74.2,201.9 76.8,230.3 79.4,242.3 81.9,197.4 84.5,202.9 87.0,240.8 89.6,245.1 92.2,237.9 94.7,234.2 97.3,232.7 99.8,214.7 102.4,213.7 105.0,213.0 107.5,210.7 110.1,212.1 112.6,209.4 115.2,210.0 117.8,209.7 120.3,213.2 122.9,220.4 125.4,221.6 128.0,218.3 130.6,222.5 133.1,222.5 135.7,227.6 138.2,222.2 140.8,225.9 143.4,224.1 145.9,223.3 148.5,223.9 151.0,218.7 153.6,217.6 156.2,218.6 158.7,215.9 161.3,219.7 163.8,212.3 166.4,217.8 169.0,222.3 171.5,218.4 174.1,220.2 176.6,221.6 179.2,214.3 181.8,228.0 184.3,215.6 186.9,220.3 189.4,223.3 192.0,213.5 194.6,215.7 197.1,220.2 199.7,220.6 202.2,227.3 204.8,220.6 207.4,223.0 209.9,218.6 212.5,214.1 215.0,224.4 217.6,223.6 220.2,216.4 222.7,222.2 225.3,221.7 227.8,222.2 230.4,218.9 233.0,216.7 235.5,216.8 238.1,220.7 240.6,220.0 243.2,220.9 245.8,216.5 248.3,217.1 250.9,217.3 253.4,217.5 256.0,222.4 258.6,225.0 261.1,224.1 263.7,223.1 266.2,220.7 268.8,214.7 271.4,225.1 273.9,221.8 276.5,222.1 279.0,220.5 281.6,222.3 284.2,218.9 286.7,217.3 289.3,219.9 291.8,215.6 294.4,219.1 297.0,219.9 299.5,222.8 302.1,222.4 304.6,221.0 307.2,219.1 309.8,222.6 312.3,225.3 314.9,216.6 317.4,214.9 320.0,222.6 322.6,223.8 325.1,223.2 327.7,223.1 330.2,219.5 332.8,220.8 335.4,216.5 337.9,218.9 340.5,225.1 343.0,223.6 345.6,218.9 348.2,219.0 350.7,215.5 353.3,225.2 355.8,220.6 358.4,224.1 361.0,218.3 363.5,217.6 366.1,217.1 368.6,218.9 371.2,215.2 373.8,220.7 376.3,221.3 378.9,221.2 381.4,221.0 384.0,219.1 386.6,223.4 389.1,217.6 391.7,220.8 394.2,219.9 396.8,220.5 399.4,223.1 401.9,220.4 404.5,218.7 407.0,218.9 409.6,220.7 412.2,219.1 414.7,221.9 417.3,223.4 419.8,219.9 422.4,220.7 425.0,209.5 427.5,220.4 430.1,218.0 432.6,209.1 435.2,219.8 437.8,222.3 440.3,222.1 442.9,220.4 445.4,223.1 448.0,214.6 450.6,222.3 453.1,228.1 455.7,218.6 458.2,223.5 460.8,216.2 463.4,219.2 465.9,221.4 468.5,223.3 471.0,217.9 473.6,219.6 476.2,217.5 478.7,214.2 481.3,216.5 483.8,222.2 486.4,215.4 489.0,221.4 491.5,216.9 494.1,220.8 496.6,217.4 499.2,220.0 501.8,225.6 504.3,221.6 506.9,216.7 509.4,228.7 512.0,219.4 514.6,213.9 517.1,220.3 519.7,222.4 522.2,220.2 524.8,220.6 527.4,222.0 529.9,224.9 532.5,218.7 535.0,218.4 537.6,223.0 540.2,147.1 542.7,151.2 545.3,155.2 547.8,154.6 550.4,159.5 553.0,159.4 555.5,161.9 558.1,160.0 560.6,168.2 563.2,174.0 565.8,178.9 568.3,182.6 570.9,189.4 573.4,192.2 576.0,199.5 578.6,202.2 581.1,209.0 583.7,218.5 586.2,222.9 588.8,229.5 591.4,236.2 593.9,242.4 596.5,247.1 599.0,250.3 601.6,257.6 604.2,271.3 606.7,270.8 609.3,269.6 611.8,267.0 614.4,277.8 617.0,282.7 619.5,283.9 622.1,287.4 624.6,289.0 627.2,291.2 629.8,290.8 632.3,287.6 634.9,291.1 637.4,288.5 640.0,292.9 642.6,288.5 645.1,286.3 647.7,283.5 650.2,287.7 652.8,280.5 655.4,270.1 657.9,273.6 660.5,264.7 663.0,266.1 665.6,252.3 668.2,247.0 670.7,245.4 673.3,243.1 675.8,238.2 678.4,224.0 681.0,219.9 683.5,219.7 686.1,205.2 688.6,203.7 691.2,195.6 693.8,192.7 696.3,190.1 698.9,185.4 701.4,175.6 704.0,174.4 706.6,167.1 709.1,164.4 711.7,158.9 714.2,152.4 716.8,153.2 719.4,154.8 721.9,148.1 724.5,146.9 727.0,151.1 729.6,148.4 732.2,150.0 734.7,147.0 737.3,150.1 739.8,153.8 742.4,156.7 745.0,158.0 747.5,161.0 750.1,162.7 752.6,166.3 755.2,178.1 757.8,174.5 760.3,184.4 762.9,181.9 765.4,184.6 768.0,201.2 770.6,204.8 773.1,207.5 775.7,210.0 778.2,214.7 780.8,220.2 783.4,238.3 785.9,242.0 788.5,243.3 791.0,256.5 793.6,247.1 796.2,261.3 798.7,266.6 801.3,271.0 803.8,278.8 806.4,276.6 809.0,285.0 811.5,281.0 814.1,286.6 816.6,286.2 819.2,287.8 821.8,285.3 824.3,292.4 826.9,289.0 829.4,292.8 832.0,284.3" fill="none" stroke="#1baf7a" stroke-width="2" stroke-linejoin="round" stroke-linecap="round"/><line x1="86.4" y1="56" x2="86.4" y2="384" stroke="#898781" stroke-width="1" stroke-dasharray="3,3"/><circle cx="86.4" cy="220" r="4" fill="#fcfcfb" stroke="#898781" stroke-width="2"/><text x="94.4" y="70" font-size="11.5" fill="#52514e">Fin de impulso</text><line x1="256" y1="56" x2="256" y2="384" stroke="#898781" stroke-width="1" stroke-dasharray="3,3"/><circle cx="256" cy="220" r="4" fill="#fcfcfb" stroke="#898781" stroke-width="2"/><text x="264" y="70" font-size="11.5" fill="#52514e">Apogeo / despliegue</text><line x1="64" y1="26" x2="82" y2="26" stroke="#2a78d6" stroke-width="2.5"/><text x="88" y="30" font-size="12" fill="#52514e">Roll</text><line x1="136.4" y1="26" x2="154.4" y2="26" stroke="#1baf7a" stroke-width="2.5"/><text x="160.4" y="30" font-size="12" fill="#52514e">Pitch</text></svg>